# xmcd
#
# Track frame offsets:
#	150
#	18962
#	37970
#	57582
#	76615
#	98115
#	118380
#	140325
#	161260
#	176047
#	192877
#	209290
#	229187
#	249367
#	264755
#
# Disc length: 3731 seconds
#
# Revision: 9
# Processed by: cddbd v1.5.2PL0 Copyright (c) Steve Scherf et al.
# Submitted via: EZCDAudioConverter 8.2.2.1
#
DISCID=bd0e910f
DTITLE=ZEZÉ DI CAMARGO and LUCIANO - PARE! [CD 2-492465) COLUMBIA
DYEAR=1999
DGENRE=SERTANEJO
TTITLE0=PARE! (BY GILMAR SINISTRO)
TTITLE1=SERÁ QUE FOI SAUDADE? (BY GILMAR SINISTRO)
TTITLE2=AMOR SELVAGEM (BY GILMAR SINISTRO)
TTITLE3=TÁ ESCRITO EM MEU OLHAR (BY GILMAR SINISTRO)
TTITLE4=CHEGA (BY GILMAR SINISTRO)
TTITLE5=QUEM É ELE? (BY GILMAR SINISTRO)
TTITLE6=VOCÊ MUDOU DEMAIS (BY GILMAR SINISTRO)
TTITLE7=AMOR, PRÁ QUE BYE BYE? (BY GILMAR SINISTRO)
TTITLE8=EU NASCI PRA AMAR VOCÊ (BORN TO GIVE MY LOVE TO YOU) (BY GILMAR SINIST
TTITLE8=RO)
TTITLE9=IRRESISTÍVEL (BY GILMAR SINISTRO)
TTITLE10=FUI HOMEM DEMAIS (BY GILMAR SINISTRO)
TTITLE11=SEU MELHOR PRESENTE (BY GILMAR SINISTRO)
TTITLE12=INDIFERENÇA EM SEU OLHAR (BY GILMAR SINISTRO)
TTITLE13=SAUDADE (BY GILMAR SINISTRO)
TTITLE14=O ÚLTIMO DOS APAIXONADOS (BY GILMAR SINISTRO)
EXTD=
EXTT0=
EXTT1=
EXTT2=
EXTT3=
EXTT4=
EXTT5=
EXTT6=
EXTT7=
EXTT8=
EXTT9=
EXTT10=
EXTT11=
EXTT12=
EXTT13=
EXTT14=
PLAYORDER=
